<svg width="36" height="36" viewBox="0 0 36 36" fill="none" xmlns="http://www.w3.org/2000/svg">
<path d="M18 3C9.72 3 3 9.72 3 18C3 26.28 9.72 33 18 33C26.28 33 33 26.28 33 18C33 9.72 26.28 3 18 3ZM11.025 27.75C12.99 26.34 15.39 25.5 18 25.5C20.61 25.5 23.01 26.34 24.975 27.75C23.01 29.16 20.61 30 18 30C15.39 30 12.99 29.16 11.025 27.75ZM27.21 25.68C24.675 23.7 21.48 22.5 18 22.5C14.52 22.5 11.325 23.7 8.79 25.68C7.05 23.595 6 20.925 6 18C6 11.37 11.37 6 18 6C24.63 6 30 11.37 30 18C30 20.925 28.95 23.595 27.21 25.68Z" fill="#FFFFF0"/>
<path d="M18 9C15.105 9 12.75 11.355 12.75 14.25C12.75 17.145 15.105 19.5 18 19.5C20.895 19.5 23.25 17.145 23.25 14.25C23.25 11.355 20.895 9 18 9ZM18 16.5C16.755 16.5 15.75 15.495 15.75 14.25C15.75 13.005 16.755 12 18 12C19.245 12 20.25 13.005 20.25 14.25C20.25 15.495 19.245 16.5 18 16.5Z" fill="#FFFFF0"/>
</svg>
